<svg id="Capa_1" enable-background="new 0 0 496.99 496.99" height="512" viewBox="0 0 496.99 496.99" width="512" xmlns="http://www.w3.org/2000/svg"><g><path d="m441.263 323.097 20.655-11.925c3.587-2.071 4.816-6.658 2.745-10.245l-11.925-20.655 40.723-25.414c4.706-2.937 4.706-9.789 0-12.725l-40.723-25.414 11.925-20.655c2.071-3.587.842-8.174-2.745-10.245l-20.655-11.925 22.56-42.371c2.607-4.896-.819-10.83-6.363-11.02l-47.974-1.648v-23.85c0-4.142-3.358-7.5-7.5-7.5h-23.85l-1.648-47.974c-.19-5.544-6.124-8.97-11.02-6.363l-42.371 22.56-11.925-20.655c-2.071-3.587-6.658-4.816-10.245-2.745l-20.655 11.925-25.414-40.724c-2.937-4.706-9.789-4.706-12.725 0l-25.414 40.723-20.655-11.925c-3.587-2.071-8.174-.842-10.245 2.745l-11.925 20.655-42.371-22.56c-4.896-2.607-10.83.819-11.02 6.363l-1.648 47.975h-23.85c-4.142 0-7.5 3.358-7.5 7.5v23.85l-47.974 1.647c-5.544.19-8.97 6.124-6.363 11.02l22.56 42.371-20.655 11.925c-3.587 2.071-4.816 6.658-2.745 10.245l11.925 20.655-40.724 25.414c-4.706 2.937-4.706 9.789 0 12.725l40.723 25.414-11.925 20.655c-2.071 3.587-.842 8.174 2.745 10.245l20.655 11.925-22.56 42.371c-2.607 4.896.819 10.83 6.363 11.02l47.975 1.648v23.85c0 4.142 3.358 7.5 7.5 7.5h23.85l1.648 47.975c.19 5.544 6.124 8.97 11.02 6.363l42.371-22.56 11.925 20.655c2.071 3.587 6.658 4.816 10.245 2.745l20.655-11.925 25.414 40.723c2.937 4.706 9.789 4.706 12.725 0l25.414-40.723 20.655 11.925c3.587 2.071 8.174.842 10.245-2.745l11.925-20.655 42.371 22.56c4.896 2.607 10.83-.819 11.02-6.363l1.648-47.975h23.85c4.142 0 7.5-3.358 7.5-7.5v-23.85l47.975-1.648c5.544-.19 8.97-6.124 6.363-11.02z" fill="#fc954c"/><circle cx="248.495" cy="248.495" fill="#fce06f" r="141.5"/><path d="m248.495 136.995v223c61.58 0 111.5-49.92 111.5-111.5s-49.92-111.5-111.5-111.5z" fill="#fbf0a8"/><path d="m329.995 248.495c0-61.58-36.489-111.5-81.5-111.5-61.58 0-111.5 49.92-111.5 111.5s49.92 111.5 111.5 111.5c45.011 0 81.5-49.92 81.5-111.5z" fill="#fffbdb"/></g></svg>